<svg width="850" height="420" xmlns="http://www.w3.org/2000/svg" font-family="sans-serif">
    <style>.label{font-size:13px;text-anchor:middle;dominant-baseline:central;}.group-label{font-size:15px;font-weight:bold;text-anchor:middle;}.box{stroke:#333;stroke-width:1.5;fill:white;}.arrow{marker-end:url(#h);fill:none;stroke:black;}.arrow-dash{marker-end:url(#h);fill:none;stroke:black;stroke-dasharray:5,5;}</style>
    <defs><marker id="h" viewBox="0 0 10 10" refX="8" refY="5" markerWidth="6" markerHeight="6" orient="auto-start-reverse"><path d="M 0 0 L 10 5 L 0 10 z"/></marker></defs>
    <rect x="5" y="5" width="840" height="150" fill="#f9f9f9" stroke="#ccc" rx="10" />
    <text x="425" y="25" class="group-label">Phase 1: Frontend MVP</text>
    <rect x="50" y="70" width="120" height="50" class="box" style="fill:#e3f2fd;"/><text x="110" y="95" class="label">React App</text>
    <rect x="220" y="70" width="120" height="50" class="box"/><text x="280" y="95" class="label">Context API</text>
    <rect x="390" y="70" width="120" height="50" class="box" style="fill:#fff3e0;"/><text x="450" y="95" class="label">localStorage</text>
    <path d="M170,95 H220" class="arrow"/>
    <path d="M340,95 H390" class="arrow"/>
    <rect x="5" y="170" width="840" height="240" fill="#f9f9f9" stroke="#ccc" rx="10" />
    <text x="425" y="190" class="group-label">Phase 2: Backend Integration</text>
    <rect x="50" y="280" width="120" height="50" class="box" style="fill:#e8f5e8;"/><text x="110" y="305" class="label">React App</text>
    <rect x="220" y="220" width="120" height="50" class="box"/><text x="280" y="245" class="label">API Service</text>
    <rect x="390" y="220" width="150" height="50" class="box"/><text x="465" y="245" class="label">AWS API Gateway</text>
    <rect x="590" y="220" width="150" height="50" class="box"/><text x="665" y="245" class="label">Lambda Functions</text>
    <rect x="590" y="290" width="150" height="50" class="box" style="fill:#fce4ec;"/><text x="665" y="315" class="label">DynamoDB</text>
    <rect x="220" y="340" width="120" height="50" class="box"/><text x="280" y="365" class="label">Auth Context</text>
    <rect x="390" y="340" width="120" height="50" class="box"/><text x="450" y="365" class="label">JWT Tokens</text>
    <path d="M170,305 L220,245" class="arrow"/>
    <path d="M340,245 H390" class="arrow"/>
    <path d="M540,245 H590" class="arrow"/>
    <path d="M665,270 V290" class="arrow"/>
    <path d="M170,305 L220,365" class="arrow"/>
    <path d="M340,365 H390" class="arrow"/>
    <path d="M110,120 V280" class="arrow-dash"/><text x="135" y="200" font-size="12px">Migration</text>
</svg>